<svg id="Слой_1" data-name="Слой 1" xmlns="http://www.w3.org/2000/svg" viewBox="0 0 74.805 74.80655"><defs><style>.cls-1{fill:#231f20;}</style></defs><title>11</title><path class="cls-1" d="M696.40434,43.74058a37.40328,37.40328,0,1,0,37.4025,37.4025A37.40217,37.40217,0,0,0,696.40434,43.74058Zm0,68.76762a31.16953,31.16953,0,1,1,31.16875-31.17031A31.16947,31.16947,0,0,1,696.40434,112.5082Z" transform="translate(-659.00184 -43.74058)"/><path class="cls-1" d="M694.50616,93.49837q-4.02778,0-4.027,4.13609a4.3654,4.3654,0,0,0,1.041,3.10752,4.54366,4.54366,0,0,0,5.9844-.02649,4.35215,4.35215,0,0,0,1.05662-3.081,4.23321,4.23321,0,0,0-1.041-3.05609A3.98756,3.98756,0,0,0,694.50616,93.49837Z" transform="translate(-659.00184 -43.74058)"/><path class="cls-1" d="M704.72484,63.06209q-3.15116-2.62986-8.51842-2.63064a24.04867,24.04867,0,0,0-10.108,2.19116,1.9654,1.9654,0,0,0-.98181,2.63688l0.71376,1.49454a2.09416,2.09416,0,0,0,2.66025.72623,0.33173,0.33173,0,0,0,.04208-0.01091c0.78545-.32883,1.58026-0.63428,2.38753-0.90389a15.17444,15.17444,0,0,1,4.82181-.74026,6.90111,6.90111,0,0,1,4.41038,1.23272,4.26569,4.26569,0,0,1,1.5335,3.53454,6.00942,6.00942,0,0,1-.946,3.39739,21.1446,21.1446,0,0,1-4.20311,3.999,14.313,14.313,0,0,0-3.83532,4.13609,10.34364,10.34364,0,0,0-1.09558,5.01505c-0.07013,1.46181,1.7922,1.75324,1.7922,1.75324h1.12519s2.14129,0.01247,2.46856-1.83272c0.00468-.02494.01247-0.03273,0.01714-0.05766a5.89442,5.89442,0,0,1,.82753-2.87688,16.164,16.164,0,0,1,3.41142-3.31636,29.36165,29.36165,0,0,0,4.20311-3.78077,10.51382,10.51382,0,0,0,1.82337-3.05454,10.34007,10.34007,0,0,0,.60311-3.65765A8.952,8.952,0,0,0,704.72484,63.06209Z" transform="translate(-659.00184 -43.74058)"/></svg>