<svg id="Слой_1" data-name="Слой 1" xmlns="http://www.w3.org/2000/svg" viewBox="0 0 40.64029 36.51181"><defs><style>.cls-1{fill:#010101;}</style></defs><title>13</title><path class="cls-1" d="M719.65908,25.13657A18.32077,18.32077,0,0,0,702.7704,35.328a0.66217,0.66217,0,1,0,1.18566.58539,16.99243,16.99243,0,0,1,30.79088.69953,3.52157,3.52157,0,1,0,1.30969-.22986,0.66215,0.66215,0,0,0-.05292-0.205A18.31939,18.31939,0,0,0,719.65908,25.13657ZM719.07534,34.225a0.63507,0.63507,0,0,0-.62508.64489v2.05057a3.57844,3.57844,0,0,0-2.78143,3.78846,3.51561,3.51561,0,0,0,3.38336,3.36023,0.63366,0.63366,0,0,0,.12071-0.0113q0.02962,0.00424.05953,0.00565a2.27131,2.27131,0,0,1,2.09848,1.52467,2.38847,2.38847,0,0,1-.63335,2.578,2.20907,2.20907,0,0,1-2.54165.31585,2.35758,2.35758,0,0,1-1.21047-2.34489,0.63506,0.63506,0,1,0-1.25745-.179l-0.00428.03845a3.62777,3.62777,0,0,0,1.87358,3.605,3.45658,3.45658,0,0,0,.845.3092v1.99431a0.63506,0.63506,0,1,0,1.27.01791c0.00008-.006.00008-0.012,0-0.01791V49.97692a3.50584,3.50584,0,0,0,1.87523-.86817,3.65518,3.65518,0,0,0,.97731-3.95221,3.5523,3.5523,0,0,0-3.27587-2.36308,0.63361,0.63361,0,0,0-.12237.01016q-0.03044-.00429-0.06119-0.00565a2.23332,2.23332,0,0,1-2.12989-2.17453,2.30056,2.30056,0,0,1,1.83555-2.48045,2.15472,2.15472,0,0,1,2.411,1.77441,0.63506,0.63506,0,0,0,1.24843-.23375l-0.0082-.03748a3.52574,3.52574,0,0,0-2.70206-2.72523V34.86879a0.63506,0.63506,0,0,0-.625-0.64493q-0.00994-.00016-0.01988,0V34.225ZM735.969,37.69765a2.20689,2.20689,0,1,1-2.18612,2.22748A2.19683,2.19683,0,0,1,735.969,37.69765Zm-33.58884,5.63894a3.53152,3.53152,0,0,0,.06449,7.06274c0.05262-.00052.10173-0.01354,0.15379-0.01636a0.66207,0.66207,0,0,0,.05457.21167,18.31918,18.31918,0,0,0,33.44663.40683,0.66295,0.66295,0,0,0-1.20385-.55563,16.99232,16.99232,0,0,1-31.024-.37038,3.52631,3.52631,0,0,0-1.49159-6.73862V43.33659Zm0.01158,1.32455a2.20689,2.20689,0,1,1-2.18612,2.22748A2.19812,2.19812,0,0,1,702.39172,44.66113Z" transform="translate(-698.88088 -25.13056)"/></svg>