<?xml version="1.0"?>
<!--Icons from directory ""-->
<svg xmlns="http://www.w3.org/2000/svg" width="32" height="752" viewBox="0 0 32 752"><svg id="_1" viewBox="0 0 41.07745 30.23044" data-name="&#x421;&#x43B;&#x43E;&#x439; 1" width="32" height="32" y="0"><g fill="#fff"><path transform="translate(-207.79 -48.261)" d="m208.03 63.584h40.593a0.02413 0.02413 0 0 1 0.01113 0 0.21621 0.21621 0 0 0 0.21651 -0.21651 0.2078 0.2078 0 0 0 -0.04193 -0.1258l-4.8437-14.832a0.21422 0.21422 0 0 0 -0.20453 -0.14891h-30.88a0.21422 0.21422 0 0 0 -0.20453 0.14891l-4.87 14.891a0.21631 0.21631 0 0 0 0.21 0.283zm32.391-8.6545a1.0218 1.0218 0 1 1 -1.264 0.9927 1.1537 1.1537 0 0 1 1.26 -0.993zm-12.38 1.271c-2.2456-0.45442-3.6328-0.97816-3.6328-1.9657 0-0.94393 1.2999-1.6594 3.3247-1.8305v-1.147h1.3641v1.1022a10.313 10.313 0 0 1 2.8626 0.39794l-0.55112 0.74966a9.315 9.315 0 0 0 -2.7736 -0.386c-1.6936 0-2.3329 0.522-2.3329 0.9773 0 0.59049 0.8147 0.88744 2.7291 1.2965 2.267 0.47753 3.4111 1.068 3.4111 2.0796 0 0.89771-1.2101 1.7381-3.477 1.9315v1.182h-1.3864v-1.1476a11.204 11.204 0 0 1 -3.3692 -0.50063l0.52887-0.76164a10.145 10.145 0 0 0 3.1698 0.48865c1.5626 0 2.6195-0.4664 2.6195-1.1142 0.01-0.625-0.85-1.011-2.48-1.352zm-11.808-1.2708a1.0218 1.0218 0 1 1 -1.264 0.9927 1.1537 1.1537 0 0 1 1.26 -0.993z"/><path transform="translate(-207.79 -48.261)" d="m208.65 68.924h39.35a0.86391 0.86391 0 0 0 0 -1.7278h-39.35a0.86391 0.86391 0 0 0 0 1.728z"/><path transform="translate(-207.79 -48.261)" d="m248 71.981h-39.35a0.86348 0.86348 0 1 0 0 1.727h39.35a0.86348 0.86348 0 0 0 0 -1.727z"/><path transform="translate(-207.79 -48.261)" d="m248 76.764h-39.35a0.86348 0.86348 0 0 0 0 1.727h39.35a0.86348 0.86348 0 0 0 0 -1.727z"/></g></svg><svg id="_1h" viewBox="0 0 41.07745 30.23044" data-name="&#x421;&#x43B;&#x43E;&#x439; 1" width="32" height="32" y="32"><g fill="#283b4c"><path transform="translate(-207.79 -48.261)" d="m208.03 63.584h40.593a0.02413 0.02413 0 0 1 0.01113 0 0.21621 0.21621 0 0 0 0.21651 -0.21651 0.2078 0.2078 0 0 0 -0.04193 -0.1258l-4.8437-14.832a0.21422 0.21422 0 0 0 -0.20453 -0.14891h-30.88a0.21422 0.21422 0 0 0 -0.20453 0.14891l-4.87 14.891a0.21631 0.21631 0 0 0 0.21 0.283zm32.391-8.6545a1.0218 1.0218 0 1 1 -1.264 0.9927 1.1537 1.1537 0 0 1 1.26 -0.993zm-12.38 1.271c-2.2456-0.45442-3.6328-0.97816-3.6328-1.9657 0-0.94393 1.2999-1.6594 3.3247-1.8305v-1.147h1.3641v1.1022a10.313 10.313 0 0 1 2.8626 0.39794l-0.55112 0.74966a9.315 9.315 0 0 0 -2.7736 -0.386c-1.6936 0-2.3329 0.522-2.3329 0.9773 0 0.59049 0.8147 0.88744 2.7291 1.2965 2.267 0.47753 3.4111 1.068 3.4111 2.0796 0 0.89771-1.2101 1.7381-3.477 1.9315v1.182h-1.3864v-1.1476a11.204 11.204 0 0 1 -3.3692 -0.50063l0.52887-0.76164a10.145 10.145 0 0 0 3.1698 0.48865c1.5626 0 2.6195-0.4664 2.6195-1.1142 0.01-0.625-0.85-1.011-2.48-1.352zm-11.808-1.2708a1.0218 1.0218 0 1 1 -1.264 0.9927 1.1537 1.1537 0 0 1 1.26 -0.993z"/><path transform="translate(-207.79 -48.261)" d="m208.65 68.924h39.35a0.86391 0.86391 0 0 0 0 -1.7278h-39.35a0.86391 0.86391 0 0 0 0 1.728z"/><path transform="translate(-207.79 -48.261)" d="m248 71.981h-39.35a0.86348 0.86348 0 1 0 0 1.727h39.35a0.86348 0.86348 0 0 0 0 -1.727z"/><path transform="translate(-207.79 -48.261)" d="m248 76.764h-39.35a0.86348 0.86348 0 0 0 0 1.727h39.35a0.86348 0.86348 0 0 0 0 -1.727z"/></g></svg><svg id="_2" viewBox="0 0 42.76671 31.36225" data-name="&#x421;&#x43B;&#x43E;&#x439; 1" width="32" height="32" y="64"><g fill="#fff"><path transform="translate(-268.02 -46.766)" d="m275.86 53.894v-1.2438a1.5391 1.5391 0 0 1 0.01853 -0.18176h-2.69a0.18161 0.18161 0 0 0 -0.18176 0.18176v1.2438h2.8511"/><path transform="translate(-268.02 -46.766)" d="m282.27 68.862h4.99v2.851h-4.9894v-2.851z"/><path transform="translate(-268.02 -46.766)" d="m277.28 52.65v6.7643a0.18161 0.18161 0 0 0 0.18176 0.18176h1.062a0.18161 0.18161 0 0 0 0.18176 -0.18176v-3.913a1.6095 1.6095 0 0 1 1.6073 -1.6073h2.4876a0.18161 0.18161 0 0 0 0.18176 -0.18176v-1.062a0.18161 0.18161 0 0 0 -0.18176 -0.18176h-5.3387a0.18161 0.18161 0 0 0 -0.18176 0.18176"/><path transform="translate(-268.02 -46.766)" d="m273.01 68.862h4.9894v2.851h-4.9894v-2.851z"/><path transform="translate(-268.02 -46.766)" d="m273.01 55.319h2.8511v1.426h-2.8511v-1.426z"/><path transform="translate(-268.02 -46.766)" d="m275.86 59.414v-1.2438h-2.8511v1.2438a0.18161 0.18161 0 0 0 0.18176 0.18176h2.6879a1.539 1.539 0 0 1 -0.01853 -0.18176"/><path transform="translate(-268.02 -46.766)" d="m280.14 58.17v1.2438a1.5393 1.5393 0 0 1 -0.01853 0.18176h2.6879a0.18161 0.18161 0 0 0 0.18176 -0.18176v-1.2438h-2.8511"/><path transform="translate(-268.02 -46.766)" d="m280.32 55.319a0.18161 0.18161 0 0 0 -0.18176 0.18176v1.2438h2.8511v-1.444a1.539 1.539 0 0 1 -0.18176 0.01853h-2.49"/><path transform="translate(-268.02 -46.766)" d="m291.54 68.862h4.9894v2.851h-4.9894v-2.851z"/><path transform="translate(-268.02 -46.766)" d="m300.81 68.862h4.9894v2.851h-4.99v-2.851z"/><path transform="translate(-268.02 -46.766)" d="m307.78 46.766h-36.76a3.0094 3.0094 0 0 0 -3.0058 3.0058v25.35a3.0094 3.0094 0 0 0 3.0058 3.0058h36.755a3.0094 3.0094 0 0 0 3.0058 -3.0058v-25.35a3.0094 3.0094 0 0 0 -3.0058 -3.0058zm-16.952 4.2767h6.415a0.71278 0.71278 0 1 1 0 1.4256h-6.415a0.71278 0.71278 0 1 1 0 -1.4256zm5.7022 4.2767a0.71258 0.71258 0 0 1 -0.71278 0.71278h-1.43a0.71278 0.71278 0 0 1 0 -1.4256h1.4256a0.71258 0.71258 0 0 1 0.71278 0.71278zm-5.7022-0.71278h0.71278a0.71278 0.71278 0 0 1 0 1.4256h-0.71278a0.71278 0.71278 0 1 1 0 -1.4256zm-19.245-1.9566a1.6095 1.6095 0 0 1 1.6073 -1.6073h9.6154a1.6095 1.6095 0 0 1 1.6073 1.6073v6.7643a1.6095 1.6095 0 0 1 -1.6073 1.6073h-9.62a1.6095 1.6095 0 0 1 -1.6073 -1.6073v-6.764zm0 14.787h7.8406v5.702h-7.8406v-5.703zm9.2661 0h7.8406v5.702h-7.84v-5.703zm9.2661 0h7.8406v5.702h-7.8406v-5.703zm7.8406-12.117a0.71258 0.71258 0 0 1 0.71278 -0.71278h0.71278a0.71278 0.71278 0 1 1 0 1.4256h-0.71278a0.71258 0.71258 0 0 1 -0.71278 -0.71278zm1.4256 12.117h7.8406v5.702h-7.8406v-5.703zm2.1383-12.117a0.71258 0.71258 0 0 1 0.71278 -0.71278h1.4256a0.71278 0.71278 0 1 1 0 1.4256h-1.4256a0.71258 0.71258 0 0 1 -0.71278 -0.71278zm5.4955 0.50607a0.74951 0.74951 0 0 1 -0.50607 0.20671 0.73347 0.73347 0 0 1 -0.50607 -0.20671 0.71279 0.71279 0 1 1 1.0121 0zm-0.52-3.358h-6.415a0.71278 0.71278 0 1 1 0 -1.4256h6.415a0.71278 0.71278 0 1 1 0 1.4256z"/></g></svg><svg id="_2h" viewBox="0 0 42.76671 31.36225" data-name="&#x421;&#x43B;&#x43E;&#x439; 1" width="32" height="32" y="96"><g fill="#283b4c"><path transform="translate(-268.02 -46.766)" d="m275.86 53.894v-1.2438a1.5391 1.5391 0 0 1 0.01853 -0.18176h-2.69a0.18161 0.18161 0 0 0 -0.18176 0.18176v1.2438h2.8511"/><path transform="translate(-268.02 -46.766)" d="m282.27 68.862h4.99v2.851h-4.9894v-2.851z"/><path transform="translate(-268.02 -46.766)" d="m277.28 52.65v6.7643a0.18161 0.18161 0 0 0 0.18176 0.18176h1.062a0.18161 0.18161 0 0 0 0.18176 -0.18176v-3.913a1.6095 1.6095 0 0 1 1.6073 -1.6073h2.4876a0.18161 0.18161 0 0 0 0.18176 -0.18176v-1.062a0.18161 0.18161 0 0 0 -0.18176 -0.18176h-5.3387a0.18161 0.18161 0 0 0 -0.18176 0.18176"/><path transform="translate(-268.02 -46.766)" d="m273.01 68.862h4.9894v2.851h-4.9894v-2.851z"/><path transform="translate(-268.02 -46.766)" d="m273.01 55.319h2.8511v1.426h-2.8511v-1.426z"/><path transform="translate(-268.02 -46.766)" d="m275.86 59.414v-1.2438h-2.8511v1.2438a0.18161 0.18161 0 0 0 0.18176 0.18176h2.6879a1.539 1.539 0 0 1 -0.01853 -0.18176"/><path transform="translate(-268.02 -46.766)" d="m280.14 58.17v1.2438a1.5393 1.5393 0 0 1 -0.01853 0.18176h2.6879a0.18161 0.18161 0 0 0 0.18176 -0.18176v-1.2438h-2.8511"/><path transform="translate(-268.02 -46.766)" d="m280.32 55.319a0.18161 0.18161 0 0 0 -0.18176 0.18176v1.2438h2.8511v-1.444a1.539 1.539 0 0 1 -0.18176 0.01853h-2.49"/><path transform="translate(-268.02 -46.766)" d="m291.54 68.862h4.9894v2.851h-4.9894v-2.851z"/><path transform="translate(-268.02 -46.766)" d="m300.81 68.862h4.9894v2.851h-4.99v-2.851z"/><path transform="translate(-268.02 -46.766)" d="m307.78 46.766h-36.76a3.0094 3.0094 0 0 0 -3.0058 3.0058v25.35a3.0094 3.0094 0 0 0 3.0058 3.0058h36.755a3.0094 3.0094 0 0 0 3.0058 -3.0058v-25.35a3.0094 3.0094 0 0 0 -3.0058 -3.0058zm-16.952 4.2767h6.415a0.71278 0.71278 0 1 1 0 1.4256h-6.415a0.71278 0.71278 0 1 1 0 -1.4256zm5.7022 4.2767a0.71258 0.71258 0 0 1 -0.71278 0.71278h-1.43a0.71278 0.71278 0 0 1 0 -1.4256h1.4256a0.71258 0.71258 0 0 1 0.71278 0.71278zm-5.7022-0.71278h0.71278a0.71278 0.71278 0 0 1 0 1.4256h-0.71278a0.71278 0.71278 0 1 1 0 -1.4256zm-19.245-1.9566a1.6095 1.6095 0 0 1 1.6073 -1.6073h9.6154a1.6095 1.6095 0 0 1 1.6073 1.6073v6.7643a1.6095 1.6095 0 0 1 -1.6073 1.6073h-9.62a1.6095 1.6095 0 0 1 -1.6073 -1.6073v-6.764zm0 14.787h7.8406v5.702h-7.8406v-5.703zm9.2661 0h7.8406v5.702h-7.84v-5.703zm9.2661 0h7.8406v5.702h-7.8406v-5.703zm7.8406-12.117a0.71258 0.71258 0 0 1 0.71278 -0.71278h0.71278a0.71278 0.71278 0 1 1 0 1.4256h-0.71278a0.71258 0.71258 0 0 1 -0.71278 -0.71278zm1.4256 12.117h7.8406v5.702h-7.8406v-5.703zm2.1383-12.117a0.71258 0.71258 0 0 1 0.71278 -0.71278h1.4256a0.71278 0.71278 0 1 1 0 1.4256h-1.4256a0.71258 0.71258 0 0 1 -0.71278 -0.71278zm5.4955 0.50607a0.74951 0.74951 0 0 1 -0.50607 0.20671 0.73347 0.73347 0 0 1 -0.50607 -0.20671 0.71279 0.71279 0 1 1 1.0121 0zm-0.52-3.358h-6.415a0.71278 0.71278 0 1 1 0 -1.4256h6.415a0.71278 0.71278 0 1 1 0 1.4256z"/></g></svg><svg id="_3" viewBox="0 0 35.82242 36.13929" data-name="&#x421;&#x43B;&#x43E;&#x439; 1" width="32" height="32" y="128"><path transform="translate(-329.95 -41.801)" d="m365.37 56.682l-7.583-6.7655-8.4776-7.564a2.1753 2.1753 0 0 0 -2.8959 0l-8.478 7.564-7.583 6.7655a1.1972 1.1972 0 0 0 0.7969 2.0906h1.8085v18.582a0.585 0.585 0 0 0 0.58515 0.58515h11.03v-7.916a0.36687 0.36687 0 0 1 0.36709 -0.36709h5.8423a0.36687 0.36687 0 0 1 0.36709 0.36709v7.916h11.02a0.585 0.585 0 0 0 0.58515 -0.58515v-18.583h1.8085a1.197 1.197 0 0 0 0.79 -2.09zm-23.57 9.352a0.36687 0.36687 0 0 1 -0.36709 0.36709h-4.6972a0.36687 0.36687 0 0 1 -0.36709 -0.36709v-4.898a0.36687 0.36687 0 0 1 0.36709 -0.36709h4.6972a0.36687 0.36687 0 0 1 0.36709 0.36709v4.898zm6.0679-16.194a2.6134 2.6134 0 1 1 -2.6134 2.6134 2.6134 2.6134 0 0 1 2.6 -2.613zm2.7157 16.194a0.36687 0.36687 0 0 1 -0.36709 0.36709h-4.6972a0.36687 0.36687 0 0 1 -0.36709 -0.36709v-4.898a0.36687 0.36687 0 0 1 0.36709 -0.36709h4.6972a0.36687 0.36687 0 0 1 0.36709 0.36709v4.898zm8.7836 0a0.36687 0.36687 0 0 1 -0.36709 0.36709h-4.6972a0.36687 0.36687 0 0 1 -0.36709 -0.36709v-4.898a0.36687 0.36687 0 0 1 0.36709 -0.36709h4.6972a0.36687 0.36687 0 0 1 0.36709 0.36709v4.898z" fill="#fff"/></svg><svg id="_3h" viewBox="0 0 35.82242 36.13929" data-name="&#x421;&#x43B;&#x43E;&#x439; 1" width="32" height="32" y="160"><path transform="translate(-329.95 -41.801)" d="m365.37 56.682l-7.583-6.7655-8.4776-7.564a2.1753 2.1753 0 0 0 -2.8959 0l-8.478 7.564-7.583 6.7655a1.1972 1.1972 0 0 0 0.7969 2.0906h1.8085v18.582a0.585 0.585 0 0 0 0.58515 0.58515h11.03v-7.916a0.36687 0.36687 0 0 1 0.36709 -0.36709h5.8423a0.36687 0.36687 0 0 1 0.36709 0.36709v7.916h11.02a0.585 0.585 0 0 0 0.58515 -0.58515v-18.583h1.8085a1.197 1.197 0 0 0 0.79 -2.09zm-23.57 9.352a0.36687 0.36687 0 0 1 -0.36709 0.36709h-4.6972a0.36687 0.36687 0 0 1 -0.36709 -0.36709v-4.898a0.36687 0.36687 0 0 1 0.36709 -0.36709h4.6972a0.36687 0.36687 0 0 1 0.36709 0.36709v4.898zm6.0679-16.194a2.6134 2.6134 0 1 1 -2.6134 2.6134 2.6134 2.6134 0 0 1 2.6 -2.613zm2.7157 16.194a0.36687 0.36687 0 0 1 -0.36709 0.36709h-4.6972a0.36687 0.36687 0 0 1 -0.36709 -0.36709v-4.898a0.36687 0.36687 0 0 1 0.36709 -0.36709h4.6972a0.36687 0.36687 0 0 1 0.36709 0.36709v4.898zm8.7836 0a0.36687 0.36687 0 0 1 -0.36709 0.36709h-4.6972a0.36687 0.36687 0 0 1 -0.36709 -0.36709v-4.898a0.36687 0.36687 0 0 1 0.36709 -0.36709h4.6972a0.36687 0.36687 0 0 1 0.36709 0.36709v4.898z" fill="#283b4c"/></svg><svg id="_4" viewBox="0 0 33.26038 33.26038" data-name="&#x421;&#x43B;&#x43E;&#x439; 1" width="32" height="32" y="192"><path transform="translate(-100.18 -43.741)" d="m116.81 43.741a16.63 16.63 0 1 0 16.63 16.63 16.63 16.63 0 0 0 -16.63 -16.63zm0 32.19a15.56 15.56 0 1 1 15.56 -15.56 15.56 15.56 0 0 1 -15.56 15.56zm0-30.459a14.899 14.899 0 1 0 14.899 14.899 14.899 14.899 0 0 0 -14.9 -14.899zm13.25 10.083a0.4853 0.4853 0 1 1 -0.31154 0.61162 0.4854 0.4854 0 0 1 0.31 -0.612zm-2.1368-3.8593a0.48536 0.48536 0 1 1 -0.10717 0.67777 0.486 0.486 0 0 1 0.11 -0.678zm-3.224-3.0097a0.48525 0.48525 0 1 1 0.10717 0.6774 0.48546 0.48546 0 0 1 -0.11 -0.677zm-4-1.866a0.48518 0.48518 0 1 1 0.31154 0.61162 0.4853 0.4853 0 0 1 -0.31 -0.612zm-2.6967 6.7537 0.04989-3.9188a1.6149 1.6149 0 0 1 0.30008 -0.88916 4.8051 4.8051 0 0 0 0.4856 -1.5215c0.1153-0.5621 0.18811-1.0562 0.18811-1.0562l0.3241 1.146a13.297 13.297 0 0 1 9.0694 6.5892l1.1904-0.04583s-0.44717 0.22137-0.94607 0.50482a4.8319 4.8319 0 0 0 -1.2979 0.9324 1.6133 1.6133 0 0 1 -0.75279 0.56025l-3.7052 1.2558-1.0762 0.36476a3.3579 3.3579 0 0 1 -3.8423 -2.792l-0.00111-0.007zm-3.3024 8.8417a0.8086 0.8086 0 1 1 -0.8086 0.8086 0.80855 0.80855 0 0 1 0.81 -0.809zm-1.3016-2.3888a0.8086 0.8086 0 1 1 0.8086 -0.8086 0.80879 0.80879 0 0 1 -0.81 0.809zm1.5422 0.2295a1.8657 1.8657 0 1 1 1.8659 1.8659 1.8659 1.8659 0 0 1 -1.87 -1.866zm3.9724 2.1593a0.8086 0.8086 0 1 1 -0.8086 0.8086 0.80879 0.80879 0 0 1 0.82 -0.808zm0.493-3.1978a0.8086 0.8086 0 1 1 0.8086 0.8086 0.80879 0.80879 0 0 1 -0.8 -0.808zm-2.5995-13.422a0.48523 0.48523 0 1 1 -0.48486 0.48523 0.485 0.485 0 0 1 0.49 -0.485zm0 10.137a0.80878 0.80878 0 1 1 -0.8086 0.809 0.80855 0.80855 0 0 1 0.82 -0.808zm-4.5042-9.4241a0.48512 0.48512 0 1 1 -0.31154 0.61125 0.4849 0.4849 0 0 1 0.32 -0.61zm-4.0629 2.0703a0.4851 0.4851 0 1 1 -0.10717 0.67777 0.485 0.485 0 0 1 0.11 -0.677zm-3.2248 3.2248a0.48525 0.48525 0 1 1 0.10791 0.67777 0.48559 0.48559 0 0 1 -0.11 -0.677zm0.17924 2.1194a13.297 13.297 0 0 1 9.0694 -6.5892l0.3241-1.146s0.07243 0.49373 0.18774 1.0558a4.8224 4.8224 0 0 0 0.486 1.5218 1.615 1.615 0 0 1 0.30008 0.88916l0.04952 3.9114 0.01441 1.1368a3.3587 3.3587 0 0 1 -3.8427 2.792l-0.00591-0.00111-1.0647-0.36106-3.7115-1.2584a1.6153 1.6153 0 0 1 -0.75316 -0.56025 4.8142 4.8142 0 0 0 -1.2975 -0.93277c-0.49891-0.28345-0.94607-0.50482-0.94607-0.50482zm-2.2495 1.9435a0.48512 0.48512 0 1 1 0.31154 0.61125 0.48565 0.48565 0 0 1 -0.31 -0.61zm-0.71325 4.5042a0.485 0.485 0 1 1 0.48523 0.48523 0.485 0.485 0 0 1 -0.5 -0.484zm1.3249 4.8154a0.48512 0.48512 0 1 1 0.31154 -0.61125 0.48476 0.48476 0 0 1 -0.31 0.612zm2.1364 3.8593a0.485 0.485 0 1 1 0.10754 -0.67777 0.48481 0.48481 0 0 1 -0.11 0.679zm3.2244 3.0097a0.48521 0.48521 0 1 1 -0.10754 -0.6774 0.48441 0.48441 0 0 1 0.11 0.678zm-0.18182-3.2041a4.81 4.81 0 0 0 -1.2857 0.94386c-0.42462 0.38767-0.7746 0.74577-0.7746 0.74577l0.41243-1.1201a13.233 13.233 0 0 1 -3.5618 -9.0498 13.446 13.446 0 0 1 0.09719 -1.6091l-0.99042-0.663s0.49262 0.08389 1.0628 0.14782a4.8138 4.8138 0 0 0 1.5969 0.00813 1.6117 1.6117 0 0 1 0.93 -0.01l3.7355 1.1619 1.0854 0.33741a3.3591 3.3591 0 0 1 1.4679 4.5175l-0.003 0.00591-0.67186 0.90062-2.3438 3.1413a1.6185 1.6185 0 0 1 -0.76 0.543zm4.1786 5.0704a0.48518 0.48518 0 1 1 -0.31154 -0.61125 0.485 0.485 0 0 1 0.31 0.612zm3.8929 1.0248a0.485 0.485 0 1 1 0.48523 -0.48523 0.485 0.485 0 0 1 -0.49 0.486zm4.5042-0.71325a0.48506 0.48506 0 1 1 0.31154 -0.61125 0.48421 0.48421 0 0 1 -0.31 0.612zm1.1017-1.8193a13.305 13.305 0 0 1 -11.211 -0.00037l-0.93536 0.73579s0.23134-0.44162 0.4686-0.96381a4.812 4.812 0 0 0 0.50149 -1.5174 1.614 1.614 0 0 1 0.27976 -0.89581l2.2591-3.1941 0.65634-0.9276a3.3582 3.3582 0 0 1 4.75 0l0.0048 0.0048 0.64895 0.91688 2.2632 3.1996a1.6172 1.6172 0 0 1 0.27976 0.89581 4.8285 4.8285 0 0 0 0.50149 1.5174c0.23726 0.52219 0.469 0.96381 0.469 0.96381zm2.9616-0.2513a0.48506 0.48506 0 1 1 0.10717 -0.6774 0.48436 0.48436 0 0 1 -0.1 0.677zm1.5644-1.6216s-0.3496-0.3581-0.77423-0.74577a4.8158 4.8158 0 0 0 -1.2857 -0.94386 1.6149 1.6149 0 0 1 -0.76536 -0.54325l-2.3393-3.1354-0.67962-0.911a3.3584 3.3584 0 0 1 1.4679 -4.5175l0.00628-0.003 1.0721-0.33334 3.7429-1.1637a1.6117 1.6117 0 0 1 0.93831 0.01072 4.8118 4.8118 0 0 0 1.5965 -0.00813c0.571-0.06393 1.0632-0.14782 1.0632-0.14782l-0.99042 0.663a13.442 13.442 0 0 1 0.09719 1.6091 13.233 13.233 0 0 1 -3.5614 9.0494zm1.6601-1.6024a0.4851 0.4851 0 1 1 -0.10754 -0.67777 0.48551 0.48551 0 0 1 0.12 0.678zm2.0703-4.0633a0.48512 0.48512 0 1 1 -0.31154 -0.61125 0.4855 0.4855 0 0 1 0.32 0.611zm0.22839-4.0193a0.485 0.485 0 1 1 0.48486 -0.48486 0.48523 0.48523 0 0 1 -0.47 0.485zm-14.091 0.91207a1.5115 1.5115 0 1 1 1.5111 -1.5115 1.5114 1.5114 0 0 1 -1.5 1.512z" fill="#fff"/></svg><svg id="_4h" viewBox="0 0 33.26038 33.26038" data-name="&#x421;&#x43B;&#x43E;&#x439; 1" width="32" height="32" y="224"><path transform="translate(-100.18 -43.741)" d="m116.81 43.741a16.63 16.63 0 1 0 16.63 16.63 16.63 16.63 0 0 0 -16.63 -16.63zm0 32.19a15.56 15.56 0 1 1 15.56 -15.56 15.56 15.56 0 0 1 -15.56 15.56zm0-30.459a14.899 14.899 0 1 0 14.899 14.899 14.899 14.899 0 0 0 -14.9 -14.899zm13.25 10.083a0.4853 0.4853 0 1 1 -0.31154 0.61162 0.4854 0.4854 0 0 1 0.31 -0.612zm-2.1368-3.8593a0.48536 0.48536 0 1 1 -0.10717 0.67777 0.486 0.486 0 0 1 0.11 -0.678zm-3.224-3.0097a0.48525 0.48525 0 1 1 0.10717 0.6774 0.48546 0.48546 0 0 1 -0.11 -0.677zm-4-1.866a0.48518 0.48518 0 1 1 0.31154 0.61162 0.4853 0.4853 0 0 1 -0.31 -0.612zm-2.6967 6.7537 0.04989-3.9188a1.6149 1.6149 0 0 1 0.30008 -0.88916 4.8051 4.8051 0 0 0 0.4856 -1.5215c0.1153-0.5621 0.18811-1.0562 0.18811-1.0562l0.3241 1.146a13.297 13.297 0 0 1 9.0694 6.5892l1.1904-0.04583s-0.44717 0.22137-0.94607 0.50482a4.8319 4.8319 0 0 0 -1.2979 0.9324 1.6133 1.6133 0 0 1 -0.75279 0.56025l-3.7052 1.2558-1.0762 0.36476a3.3579 3.3579 0 0 1 -3.8423 -2.792l-0.00111-0.007zm-3.3024 8.8417a0.8086 0.8086 0 1 1 -0.8086 0.8086 0.80855 0.80855 0 0 1 0.81 -0.809zm-1.3016-2.3888a0.8086 0.8086 0 1 1 0.8086 -0.8086 0.80879 0.80879 0 0 1 -0.81 0.809zm1.5422 0.2295a1.8657 1.8657 0 1 1 1.8659 1.8659 1.8659 1.8659 0 0 1 -1.87 -1.866zm3.9724 2.1593a0.8086 0.8086 0 1 1 -0.8086 0.8086 0.80879 0.80879 0 0 1 0.82 -0.808zm0.493-3.1978a0.8086 0.8086 0 1 1 0.8086 0.8086 0.80879 0.80879 0 0 1 -0.8 -0.808zm-2.5995-13.422a0.48523 0.48523 0 1 1 -0.48486 0.48523 0.485 0.485 0 0 1 0.49 -0.485zm0 10.137a0.80878 0.80878 0 1 1 -0.8086 0.809 0.80855 0.80855 0 0 1 0.82 -0.808zm-4.5042-9.4241a0.48512 0.48512 0 1 1 -0.31154 0.61125 0.4849 0.4849 0 0 1 0.32 -0.61zm-4.0629 2.0703a0.4851 0.4851 0 1 1 -0.10717 0.67777 0.485 0.485 0 0 1 0.11 -0.677zm-3.2248 3.2248a0.48525 0.48525 0 1 1 0.10791 0.67777 0.48559 0.48559 0 0 1 -0.11 -0.677zm0.17924 2.1194a13.297 13.297 0 0 1 9.0694 -6.5892l0.3241-1.146s0.07243 0.49373 0.18774 1.0558a4.8224 4.8224 0 0 0 0.486 1.5218 1.615 1.615 0 0 1 0.30008 0.88916l0.04952 3.9114 0.01441 1.1368a3.3587 3.3587 0 0 1 -3.8427 2.792l-0.00591-0.00111-1.0647-0.36106-3.7115-1.2584a1.6153 1.6153 0 0 1 -0.75316 -0.56025 4.8142 4.8142 0 0 0 -1.2975 -0.93277c-0.49891-0.28345-0.94607-0.50482-0.94607-0.50482zm-2.2495 1.9435a0.48512 0.48512 0 1 1 0.31154 0.61125 0.48565 0.48565 0 0 1 -0.31 -0.61zm-0.71325 4.5042a0.485 0.485 0 1 1 0.48523 0.48523 0.485 0.485 0 0 1 -0.5 -0.484zm1.3249 4.8154a0.48512 0.48512 0 1 1 0.31154 -0.61125 0.48476 0.48476 0 0 1 -0.31 0.612zm2.1364 3.8593a0.485 0.485 0 1 1 0.10754 -0.67777 0.48481 0.48481 0 0 1 -0.11 0.679zm3.2244 3.0097a0.48521 0.48521 0 1 1 -0.10754 -0.6774 0.48441 0.48441 0 0 1 0.11 0.678zm-0.18182-3.2041a4.81 4.81 0 0 0 -1.2857 0.94386c-0.42462 0.38767-0.7746 0.74577-0.7746 0.74577l0.41243-1.1201a13.233 13.233 0 0 1 -3.5618 -9.0498 13.446 13.446 0 0 1 0.09719 -1.6091l-0.99042-0.663s0.49262 0.08389 1.0628 0.14782a4.8138 4.8138 0 0 0 1.5969 0.00813 1.6117 1.6117 0 0 1 0.93 -0.01l3.7355 1.1619 1.0854 0.33741a3.3591 3.3591 0 0 1 1.4679 4.5175l-0.003 0.00591-0.67186 0.90062-2.3438 3.1413a1.6185 1.6185 0 0 1 -0.76 0.543zm4.1786 5.0704a0.48518 0.48518 0 1 1 -0.31154 -0.61125 0.485 0.485 0 0 1 0.31 0.612zm3.8929 1.0248a0.485 0.485 0 1 1 0.48523 -0.48523 0.485 0.485 0 0 1 -0.49 0.486zm4.5042-0.71325a0.48506 0.48506 0 1 1 0.31154 -0.61125 0.48421 0.48421 0 0 1 -0.31 0.612zm1.1017-1.8193a13.305 13.305 0 0 1 -11.211 -0.00037l-0.93536 0.73579s0.23134-0.44162 0.4686-0.96381a4.812 4.812 0 0 0 0.50149 -1.5174 1.614 1.614 0 0 1 0.27976 -0.89581l2.2591-3.1941 0.65634-0.9276a3.3582 3.3582 0 0 1 4.75 0l0.0048 0.0048 0.64895 0.91688 2.2632 3.1996a1.6172 1.6172 0 0 1 0.27976 0.89581 4.8285 4.8285 0 0 0 0.50149 1.5174c0.23726 0.52219 0.469 0.96381 0.469 0.96381zm2.9616-0.2513a0.48506 0.48506 0 1 1 0.10717 -0.6774 0.48436 0.48436 0 0 1 -0.1 0.677zm1.5644-1.6216s-0.3496-0.3581-0.77423-0.74577a4.8158 4.8158 0 0 0 -1.2857 -0.94386 1.6149 1.6149 0 0 1 -0.76536 -0.54325l-2.3393-3.1354-0.67962-0.911a3.3584 3.3584 0 0 1 1.4679 -4.5175l0.00628-0.003 1.0721-0.33334 3.7429-1.1637a1.6117 1.6117 0 0 1 0.93831 0.01072 4.8118 4.8118 0 0 0 1.5965 -0.00813c0.571-0.06393 1.0632-0.14782 1.0632-0.14782l-0.99042 0.663a13.442 13.442 0 0 1 0.09719 1.6091 13.233 13.233 0 0 1 -3.5614 9.0494zm1.6601-1.6024a0.4851 0.4851 0 1 1 -0.10754 -0.67777 0.48551 0.48551 0 0 1 0.12 0.678zm2.0703-4.0633a0.48512 0.48512 0 1 1 -0.31154 -0.61125 0.4855 0.4855 0 0 1 0.32 0.611zm0.22839-4.0193a0.485 0.485 0 1 1 0.48486 -0.48486 0.48523 0.48523 0 0 1 -0.47 0.485zm-14.091 0.91207a1.5115 1.5115 0 1 1 1.5111 -1.5115 1.5114 1.5114 0 0 1 -1.5 1.512z" fill="#283b4c"/></svg><svg id="_5" viewBox="0 0 31.83833 39.13198" data-name="&#x421;&#x43B;&#x43E;&#x439; 1" width="32" height="32" y="256"><path transform="translate(-451.63 -38.604)" d="m451.63 62.578a12.881 12.881 0 0 0 4.8202 10.084 2.6924 2.6924 0 0 1 0.95134 2.0295v2.2198a0.83955 0.83955 0 0 0 0.8245 0.8245h5.1373a0.83954 0.83954 0 0 0 0.8245 -0.8245v-1.332h4.1225v1.3319a0.83955 0.83955 0 0 0 0.8245 0.8245h5.1373a0.83954 0.83954 0 0 0 0.8245 -0.8245v-1.966a2.5533 2.5533 0 0 1 1.0148 -2.0295 12.691 12.691 0 0 0 4.5664 -6.8497 2.3293 2.3293 0 0 0 1.1416 0.06342 2.245 2.245 0 0 0 1.649 -2.1564v-2.537a2.245 2.245 0 0 0 -1.649 -2.1564 1.7141 1.7141 0 0 0 -1.1416 0.06342 12.984 12.984 0 0 0 -4.1859 -6.5326 4.7444 4.7444 0 0 1 0.76107 -3.5517 0.89829 0.89829 0 0 0 -0.88792 -1.3953 6.4629 6.4629 0 0 0 -4.503 2.3466 8.633 8.633 0 0 1 -7.4 4.248 8.764 8.764 0 0 1 -6.4057 -2.854 12.263 12.263 0 0 0 -6.4 10.972zm23.91-5.8349a1.2685 1.2685 0 1 1 -1.2685 1.2685 1.2722 1.2722 0 0 1 1.27 -1.269zm-18.076-11.099a7.04 7.04 0 1 0 7.04 -7.04 6.8905 6.8905 0 0 0 -5.1373 2.2198 6.9765 6.9765 0 0 0 -1.89 4.82zm4.5664 2.7906c0.06342-0.25369 0.12685-0.444 0.19027-0.69765s0.12685-0.31711 0.38054-0.19027a5.2649 5.2649 0 0 0 1.3319 0.38054 1.4584 1.4584 0 0 0 0.88792 -0.12685 0.72131 0.72131 0 0 0 0.19027 -1.205 3.5404 3.5404 0 0 0 -0.50738 -0.31711 8.5952 8.5952 0 0 1 -1.3319 -0.63423 1.9833 1.9833 0 0 1 0.38054 -3.6785c0.38054-0.12685 0.38054-0.12685 0.38054-0.50738v-0.381c0-0.25369 0.06342-0.31711 0.31711-0.31711h0.25369c0.63423 0 0.63423 0 0.63423 0.57081 0 0.444 0 0.444 0.444 0.50738a5.2838 5.2838 0 0 1 0.95134 0.25369 0.26591 0.26591 0 0 1 0.19027 0.38054 3.5755 3.5755 0 0 1 -0.25369 0.76108c-0.06342 0.25369-0.12685 0.25369-0.38054 0.19027a2.8909 2.8909 0 0 0 -1.4587 -0.31711 0.80441 0.80441 0 0 0 -0.38054 0.06342 0.57436 0.57436 0 0 0 -0.12685 1.0148c0.19027 0.12685 0.444 0.25369 0.63423 0.38054 0.38054 0.19027 0.8245 0.31711 1.205 0.50738a2.155 2.155 0 0 1 0.69765 3.2346 2.2816 2.2816 0 0 1 -1.1416 0.76108 0.3 0.3 0 0 0 -0.25369 0.38054v0.63423a0.2838 0.2838 0 0 1 -0.25369 0.31711h-0.69a0.2996 0.2996 0 0 1 -0.31711 -0.31711v-0.444c0-0.31711 0-0.31711-0.31711-0.38054a8.4489 8.4489 0 0 1 -1.205 -0.31711c-0.51-0.126-0.51-0.189-0.45-0.506z" fill="#fff"/></svg><svg id="_5h" viewBox="0 0 31.83833 39.13198" data-name="&#x421;&#x43B;&#x43E;&#x439; 1" width="32" height="32" y="288"><path transform="translate(-451.63 -38.604)" d="m451.63 62.578a12.881 12.881 0 0 0 4.8202 10.084 2.6924 2.6924 0 0 1 0.95134 2.0295v2.2198a0.83955 0.83955 0 0 0 0.8245 0.8245h5.1373a0.83954 0.83954 0 0 0 0.8245 -0.8245v-1.332h4.1225v1.3319a0.83955 0.83955 0 0 0 0.8245 0.8245h5.1373a0.83954 0.83954 0 0 0 0.8245 -0.8245v-1.966a2.5533 2.5533 0 0 1 1.0148 -2.0295 12.691 12.691 0 0 0 4.5664 -6.8497 2.3293 2.3293 0 0 0 1.1416 0.06342 2.245 2.245 0 0 0 1.649 -2.1564v-2.537a2.245 2.245 0 0 0 -1.649 -2.1564 1.7141 1.7141 0 0 0 -1.1416 0.06342 12.984 12.984 0 0 0 -4.1859 -6.5326 4.7444 4.7444 0 0 1 0.76107 -3.5517 0.89829 0.89829 0 0 0 -0.88792 -1.3953 6.4629 6.4629 0 0 0 -4.503 2.3466 8.633 8.633 0 0 1 -7.4 4.248 8.764 8.764 0 0 1 -6.4057 -2.854 12.263 12.263 0 0 0 -6.4 10.972zm23.91-5.8349a1.2685 1.2685 0 1 1 -1.2685 1.2685 1.2722 1.2722 0 0 1 1.27 -1.269zm-18.076-11.099a7.04 7.04 0 1 0 7.04 -7.04 6.8905 6.8905 0 0 0 -5.1373 2.2198 6.9765 6.9765 0 0 0 -1.89 4.82zm4.5664 2.7906c0.06342-0.25369 0.12685-0.444 0.19027-0.69765s0.12685-0.31711 0.38054-0.19027a5.2649 5.2649 0 0 0 1.3319 0.38054 1.4584 1.4584 0 0 0 0.88792 -0.12685 0.72131 0.72131 0 0 0 0.19027 -1.205 3.5404 3.5404 0 0 0 -0.50738 -0.31711 8.5952 8.5952 0 0 1 -1.3319 -0.63423 1.9833 1.9833 0 0 1 0.38054 -3.6785c0.38054-0.12685 0.38054-0.12685 0.38054-0.50738v-0.381c0-0.25369 0.06342-0.31711 0.31711-0.31711h0.25369c0.63423 0 0.63423 0 0.63423 0.57081 0 0.444 0 0.444 0.444 0.50738a5.2838 5.2838 0 0 1 0.95134 0.25369 0.26591 0.26591 0 0 1 0.19027 0.38054 3.5755 3.5755 0 0 1 -0.25369 0.76108c-0.06342 0.25369-0.12685 0.25369-0.38054 0.19027a2.8909 2.8909 0 0 0 -1.4587 -0.31711 0.80441 0.80441 0 0 0 -0.38054 0.06342 0.57436 0.57436 0 0 0 -0.12685 1.0148c0.19027 0.12685 0.444 0.25369 0.63423 0.38054 0.38054 0.19027 0.8245 0.31711 1.205 0.50738a2.155 2.155 0 0 1 0.69765 3.2346 2.2816 2.2816 0 0 1 -1.1416 0.76108 0.3 0.3 0 0 0 -0.25369 0.38054v0.63423a0.2838 0.2838 0 0 1 -0.25369 0.31711h-0.69a0.2996 0.2996 0 0 1 -0.31711 -0.31711v-0.444c0-0.31711 0-0.31711-0.31711-0.38054a8.4489 8.4489 0 0 1 -1.205 -0.31711c-0.51-0.126-0.51-0.189-0.45-0.506z" fill="#283b4c"/></svg><svg id="_6" viewBox="0 0 43.18382 34.70636" data-name="&#x421;&#x43B;&#x43E;&#x439; 1" width="32" height="32" y="320"><g fill="#fff"><path transform="translate(-387.74 -43.502)" d="m430.87 50.159a6.617 6.617 0 0 0 -6.5999 -6.6568h-35.79a0.75314 0.75314 0 0 0 -0.73964 0.73964v1.4224h1.1948a0.57014 0.57014 0 0 1 0.569 0.569 0.53753 0.53753 0 0 1 -0.569 0.569h-1.19v28.107h1.1948a0.57014 0.57014 0 0 1 0.569 0.569 0.53754 0.53754 0 0 1 -0.569 0.569h-1.19v1.4224a0.75314 0.75314 0 0 0 0.73964 0.73965h35.844a6.6046 6.6046 0 0 0 6.5999 -6.5999v-4.153h-1.9914v2.162a0.57014 0.57014 0 0 1 -0.569 0.569 0.53754 0.53754 0 0 1 -0.569 -0.569v-2.162h-10.97a2.6102 2.6102 0 0 1 -2.6172 -2.6172v-7.8516a2.6102 2.6102 0 0 1 2.6172 -2.6172h10.981v-2.276a0.57014 0.57014 0 0 1 0.569 -0.569 0.53754 0.53754 0 0 1 0.569 0.569v2.2758h1.9914v-4.211h-0.05689zm-4.89 24.693a2.4846 2.4846 0 0 0 1.8207 -2.2189 0.54126 0.54126 0 0 1 1.081 0.05689 3.4538 3.4538 0 0 1 -2.6741 3.243h-0.12a0.54649 0.54649 0 0 1 -0.51206 -0.39827 0.55576 0.55576 0 0 1 0.4 -0.683zm-6.6568 0.05689h3.812a0.57014 0.57014 0 0 1 0.569 0.569 0.53754 0.53754 0 0 1 -0.569 0.569h-3.812a0.57014 0.57014 0 0 1 -0.569 -0.569 0.53754 0.53754 0 0 1 0.57 -0.569zm-27.37-29.245h3.812a0.57014 0.57014 0 0 1 0.569 0.569 0.53753 0.53753 0 0 1 -0.569 0.569h-3.812a0.57014 0.57014 0 0 1 -0.569 -0.569 0.53753 0.53753 0 0 1 0.57 -0.569zm3.812 30.382h-3.812a0.57014 0.57014 0 0 1 -0.569 -0.569 0.53754 0.53754 0 0 1 0.569 -0.569h3.812a0.569 0.569 0 0 1 0.01 1.139zm3.0155-30.382h3.812a0.57014 0.57014 0 0 1 0.569 0.569 0.53754 0.53754 0 0 1 -0.569 0.569h-3.812a0.57014 0.57014 0 0 1 -0.569 -0.569 0.53753 0.53753 0 0 1 0.57 -0.569zm3.812 30.382h-3.812a0.57014 0.57014 0 0 1 -0.569 -0.569 0.53754 0.53754 0 0 1 0.569 -0.569h3.812a0.569 0.569 0 1 1 0 1.139zm3.0155-30.382h3.812a0.57014 0.57014 0 0 1 0.569 0.569 0.53754 0.53754 0 0 1 -0.569 0.569h-3.812a0.569 0.569 0 1 1 0 -1.138zm3.812 30.382h-3.812a0.57014 0.57014 0 0 1 -0.569 -0.569 0.53754 0.53754 0 0 1 0.569 -0.569h3.812a0.569 0.569 0 1 1 0 1.139zm6.8275-1.1379a0.57014 0.57014 0 0 1 0.569 0.569 0.53754 0.53754 0 0 1 -0.569 0.569h-3.812a0.57014 0.57014 0 0 1 -0.569 -0.569 0.53754 0.53754 0 0 1 0.569 -0.569h3.812zm0-28.106h-3.812a0.57014 0.57014 0 0 1 -0.569 -0.569 0.53754 0.53754 0 0 1 0.569 -0.569h3.812a0.569 0.569 0 1 1 0 1.138zm6.8275 0h-3.812a0.57014 0.57014 0 0 1 -0.569 -0.569 0.53754 0.53754 0 0 1 0.569 -0.569h3.812a0.57014 0.57014 0 0 1 0.569 0.569 0.53753 0.53753 0 0 1 -0.57 0.569zm5.2913 2.8448a0.52535 0.52535 0 0 1 -0.569 -0.51206 2.3718 2.3718 0 0 0 -1.8207 -2.2189 0.55891 0.55891 0 0 1 0.28448 -1.081 3.575 3.575 0 0 1 2.6741 3.243 0.60958 0.60958 0 0 1 -0.57 0.569z"/><path transform="translate(-387.74 -43.502)" d="m415.74 56.987v7.8516a1.1413 1.1413 0 0 0 1.1379 1.1379h13.939v-10.128h-14a1.0939 1.0939 0 0 0 -1.08 1.138zm5.1775 0.17069a3.7551 3.7551 0 1 1 -3.7551 3.7551 3.7884 3.7884 0 0 1 3.75 -3.756z"/><path transform="translate(-387.74 -43.502)" d="m420.91 63.587a2.6741 2.6741 0 1 0 -2.6741 -2.6741 2.671 2.671 0 0 0 2.67 2.674z"/></g></svg><svg id="_6h" viewBox="0 0 43.18382 34.70636" data-name="&#x421;&#x43B;&#x43E;&#x439; 1" width="32" height="32" y="352"><g fill="#283b4c"><path transform="translate(-387.74 -43.502)" d="m430.87 50.159a6.617 6.617 0 0 0 -6.5999 -6.6568h-35.79a0.75314 0.75314 0 0 0 -0.73964 0.73964v1.4224h1.1948a0.57014 0.57014 0 0 1 0.569 0.569 0.53753 0.53753 0 0 1 -0.569 0.569h-1.19v28.107h1.1948a0.57014 0.57014 0 0 1 0.569 0.569 0.53754 0.53754 0 0 1 -0.569 0.569h-1.19v1.4224a0.75314 0.75314 0 0 0 0.73964 0.73965h35.844a6.6046 6.6046 0 0 0 6.5999 -6.5999v-4.153h-1.9914v2.162a0.57014 0.57014 0 0 1 -0.569 0.569 0.53754 0.53754 0 0 1 -0.569 -0.569v-2.162h-10.97a2.6102 2.6102 0 0 1 -2.6172 -2.6172v-7.8516a2.6102 2.6102 0 0 1 2.6172 -2.6172h10.981v-2.276a0.57014 0.57014 0 0 1 0.569 -0.569 0.53754 0.53754 0 0 1 0.569 0.569v2.2758h1.9914v-4.211h-0.05689zm-4.89 24.693a2.4846 2.4846 0 0 0 1.8207 -2.2189 0.54126 0.54126 0 0 1 1.081 0.05689 3.4538 3.4538 0 0 1 -2.6741 3.243h-0.12a0.54649 0.54649 0 0 1 -0.51206 -0.39827 0.55576 0.55576 0 0 1 0.4 -0.683zm-6.6568 0.05689h3.812a0.57014 0.57014 0 0 1 0.569 0.569 0.53754 0.53754 0 0 1 -0.569 0.569h-3.812a0.57014 0.57014 0 0 1 -0.569 -0.569 0.53754 0.53754 0 0 1 0.57 -0.569zm-27.37-29.245h3.812a0.57014 0.57014 0 0 1 0.569 0.569 0.53753 0.53753 0 0 1 -0.569 0.569h-3.812a0.57014 0.57014 0 0 1 -0.569 -0.569 0.53753 0.53753 0 0 1 0.57 -0.569zm3.812 30.382h-3.812a0.57014 0.57014 0 0 1 -0.569 -0.569 0.53754 0.53754 0 0 1 0.569 -0.569h3.812a0.569 0.569 0 0 1 0.01 1.139zm3.0155-30.382h3.812a0.57014 0.57014 0 0 1 0.569 0.569 0.53754 0.53754 0 0 1 -0.569 0.569h-3.812a0.57014 0.57014 0 0 1 -0.569 -0.569 0.53753 0.53753 0 0 1 0.57 -0.569zm3.812 30.382h-3.812a0.57014 0.57014 0 0 1 -0.569 -0.569 0.53754 0.53754 0 0 1 0.569 -0.569h3.812a0.569 0.569 0 1 1 0 1.139zm3.0155-30.382h3.812a0.57014 0.57014 0 0 1 0.569 0.569 0.53754 0.53754 0 0 1 -0.569 0.569h-3.812a0.569 0.569 0 1 1 0 -1.138zm3.812 30.382h-3.812a0.57014 0.57014 0 0 1 -0.569 -0.569 0.53754 0.53754 0 0 1 0.569 -0.569h3.812a0.569 0.569 0 1 1 0 1.139zm6.8275-1.1379a0.57014 0.57014 0 0 1 0.569 0.569 0.53754 0.53754 0 0 1 -0.569 0.569h-3.812a0.57014 0.57014 0 0 1 -0.569 -0.569 0.53754 0.53754 0 0 1 0.569 -0.569h3.812zm0-28.106h-3.812a0.57014 0.57014 0 0 1 -0.569 -0.569 0.53754 0.53754 0 0 1 0.569 -0.569h3.812a0.569 0.569 0 1 1 0 1.138zm6.8275 0h-3.812a0.57014 0.57014 0 0 1 -0.569 -0.569 0.53754 0.53754 0 0 1 0.569 -0.569h3.812a0.57014 0.57014 0 0 1 0.569 0.569 0.53753 0.53753 0 0 1 -0.57 0.569zm5.2913 2.8448a0.52535 0.52535 0 0 1 -0.569 -0.51206 2.3718 2.3718 0 0 0 -1.8207 -2.2189 0.55891 0.55891 0 0 1 0.28448 -1.081 3.575 3.575 0 0 1 2.6741 3.243 0.60958 0.60958 0 0 1 -0.57 0.569z"/><path transform="translate(-387.74 -43.502)" d="m415.74 56.987v7.8516a1.1413 1.1413 0 0 0 1.1379 1.1379h13.939v-10.128h-14a1.0939 1.0939 0 0 0 -1.08 1.138zm5.1775 0.17069a3.7551 3.7551 0 1 1 -3.7551 3.7551 3.7884 3.7884 0 0 1 3.75 -3.756z"/><path transform="translate(-387.74 -43.502)" d="m420.91 63.587a2.6741 2.6741 0 1 0 -2.6741 -2.6741 2.671 2.671 0 0 0 2.67 2.674z"/></g></svg><svg id="_7" viewBox="0 0 31.85993 31.85993" data-name="&#x421;&#x43B;&#x43E;&#x439; 1" width="32" height="32" y="384"><g fill="#fff"><path transform="translate(-153.82 -46.464)" d="m176.76 58.252a1.2036 1.2036 0 1 0 1.2036 -1.2036 1.2403 1.2403 0 0 0 -1.2 1.204z"/><path transform="translate(-153.82 -46.464)" d="m172.06 66.076a1.2036 1.2036 0 1 0 1.2036 -1.2036 1.1937 1.1937 0 0 0 -1.2 1.204z"/><path transform="translate(-153.82 -46.464)" d="m165.26 60.058a1.2036 1.2036 0 1 0 1.2036 -1.2036 1.2403 1.2403 0 0 0 -1.2 1.204z"/><path transform="translate(-153.82 -46.464)" d="m160.69 63.775a3.0538 3.0538 0 0 1 1.2744 0.2832l1.9116-2.5488a2.8698 2.8698 0 0 1 -0.3894 -1.4514 2.9382 2.9382 0 0 1 5.8764 0 2.7027 2.7027 0 0 1 -0.177 0.9558l2.832 2.3364a2.7166 2.7166 0 0 1 1.2036 -0.2478 3.9006 3.9006 0 0 1 0.6372 0.0708l1.9116-2.9382a3.0099 3.0099 0 0 1 -0.7788 -1.9824 2.9377 2.9377 0 0 1 5.8056 -0.6372h4.1418a15.924 15.924 0 0 0 -31.117 4.779c0 0.3894 0.0354 0.7788 0.0354 1.1328 1.062 0.4248 2.832 1.0974 4.2834 1.6284a3.0243 3.0243 0 0 1 2.56 -1.379z"/><path transform="translate(-153.82 -46.464)" d="m185.4 59.35h-4.7082a2.9494 2.9494 0 0 1 -2.7258 1.8408 2.7606 2.7606 0 0 1 -0.7788 -0.1062l-1.9116 2.832a2.8833 2.8833 0 0 1 0.9204 2.124 2.9382 2.9382 0 1 1 -5.8764 0 2.6766 2.6766 0 0 1 0.354 -1.3806l-2.6196-2.1594a2.826 2.826 0 0 1 -1.593 0.4956 3.0538 3.0538 0 0 1 -1.2744 -0.2832l-1.9116 2.5488a2.8698 2.8698 0 0 1 0.3894 1.4514 2.9422 2.9422 0 0 1 -5.8764 0.2124c-1.2744-0.4956-2.655-1.0266-3.6108-1.3806a15.908 15.908 0 0 0 31.506 -3.1506 17.392 17.392 0 0 0 -0.29 -3.044z"/><path transform="translate(-153.82 -46.464)" d="m159.49 66.713a1.2036 1.2036 0 1 0 1.2036 -1.2036 1.1937 1.1937 0 0 0 -1.2 1.204z"/></g></svg><svg id="_7h" viewBox="0 0 31.85993 31.85993" data-name="&#x421;&#x43B;&#x43E;&#x439; 1" width="32" height="32" y="416"><g fill="#283b4c"><path transform="translate(-153.82 -46.464)" d="m176.76 58.252a1.2036 1.2036 0 1 0 1.2036 -1.2036 1.2403 1.2403 0 0 0 -1.2 1.204z"/><path transform="translate(-153.82 -46.464)" d="m172.06 66.076a1.2036 1.2036 0 1 0 1.2036 -1.2036 1.1937 1.1937 0 0 0 -1.2 1.204z"/><path transform="translate(-153.82 -46.464)" d="m165.26 60.058a1.2036 1.2036 0 1 0 1.2036 -1.2036 1.2403 1.2403 0 0 0 -1.2 1.204z"/><path transform="translate(-153.82 -46.464)" d="m160.69 63.775a3.0538 3.0538 0 0 1 1.2744 0.2832l1.9116-2.5488a2.8698 2.8698 0 0 1 -0.3894 -1.4514 2.9382 2.9382 0 0 1 5.8764 0 2.7027 2.7027 0 0 1 -0.177 0.9558l2.832 2.3364a2.7166 2.7166 0 0 1 1.2036 -0.2478 3.9006 3.9006 0 0 1 0.6372 0.0708l1.9116-2.9382a3.0099 3.0099 0 0 1 -0.7788 -1.9824 2.9377 2.9377 0 0 1 5.8056 -0.6372h4.1418a15.924 15.924 0 0 0 -31.117 4.779c0 0.3894 0.0354 0.7788 0.0354 1.1328 1.062 0.4248 2.832 1.0974 4.2834 1.6284a3.0243 3.0243 0 0 1 2.56 -1.379z"/><path transform="translate(-153.82 -46.464)" d="m185.4 59.35h-4.7082a2.9494 2.9494 0 0 1 -2.7258 1.8408 2.7606 2.7606 0 0 1 -0.7788 -0.1062l-1.9116 2.832a2.8833 2.8833 0 0 1 0.9204 2.124 2.9382 2.9382 0 1 1 -5.8764 0 2.6766 2.6766 0 0 1 0.354 -1.3806l-2.6196-2.1594a2.826 2.826 0 0 1 -1.593 0.4956 3.0538 3.0538 0 0 1 -1.2744 -0.2832l-1.9116 2.5488a2.8698 2.8698 0 0 1 0.3894 1.4514 2.9422 2.9422 0 0 1 -5.8764 0.2124c-1.2744-0.4956-2.655-1.0266-3.6108-1.3806a15.908 15.908 0 0 0 31.506 -3.1506 17.392 17.392 0 0 0 -0.29 -3.044z"/><path transform="translate(-153.82 -46.464)" d="m159.49 66.713a1.2036 1.2036 0 1 0 1.2036 -1.2036 1.1937 1.1937 0 0 0 -1.2 1.204z"/></g></svg><svg viewBox="0 0 36.30631 28.02998" width="32" height="32" id="_8" y="448"><path fill="#fff" d="m54.5 50.974a2.0644 2.0644 0 1 0 2.0644 -2.0644 2.0644 2.0644 0 0 0 -2.0644 2.0644zm-16.089 1.984l18.153-6.741 18.153 6.7409v2.1048h-36.306v-2.105zm0 18.131h3.7073l0.52644-14.25h3.1571l0.527 14.25h4.018l0.526-14.25h3.1571l0.526 14.25h4.0179l0.52594-14.25h3.1576l0.525 14.25h4.0179l0.527-14.25h3.1571l0.526 14.25h3.7073v3.1576h-36.306v-3.158z" transform="translate(-38.411 -46.217)"/></svg><svg viewBox="0 0 36.30631 28.02998" width="32" height="32" id="_8h" y="480"><path fill="#283b4c" d="m54.5 50.974a2.0644 2.0644 0 1 0 2.0644 -2.0644 2.0644 2.0644 0 0 0 -2.0644 2.0644zm-16.089 1.984l18.153-6.741 18.153 6.7409v2.1048h-36.306v-2.105zm0 18.131h3.7073l0.52644-14.25h3.1571l0.527 14.25h4.018l0.526-14.25h3.1571l0.526 14.25h4.0179l0.52594-14.25h3.1576l0.525 14.25h4.0179l0.527-14.25h3.1571l0.526 14.25h3.7073v3.1576h-36.306v-3.158z" transform="translate(-38.411 -46.217)"/></svg><svg id="_feedback" viewBox="0 0 21.00363 20.18998" data-name="&#x421;&#x43B;&#x43E;&#x439; 1" width="32" height="32" y="512"><defs><style>.cls-1{fill:#010101;}</style></defs><title>14</title><path transform="translate(-117.22 -117.4)" class="cls-1" d="m138.06 134.28l-1.2364-3.3774a10.119 10.119 0 1 0 -3.8461 4.9478l2.4818 0.97183a2.549 2.549 0 0 0 0.9306 0.18832 1.8014 1.8014 0 0 0 1.5066 -0.75877 2.0658 2.0658 0 0 0 0.17 -1.97zm-1.6688 1.356a1.1755 1.1755 0 0 1 -0.42887 -0.09485l-3.1884-1.2474a8.6795 8.6795 0 1 1 2.5815 -3.4069l1.4151 3.866c0.2 0.54 0.03 0.88-0.38 0.88z"/><circle cy="10.094" cx="14.004" r="1.1168" class="cls-1"/><circle cy="10.094" cx="9.8799" r="1.1168" class="cls-1"/><circle cy="10.094" cx="5.7561" r="1.1168" class="cls-1"/></svg><svg id="_login" viewBox="0 0 16 21" data-name="&#x421;&#x43B;&#x43E;&#x439; 1" width="32" height="32" y="544"><path id="_login-Shape" d="m524.04 56.931h-1v-2a5 5 0 1 0 -10 0v2h-1a2.0059 2.0059 0 0 0 -2 2v10a2.0059 2.0059 0 0 0 2 2h12a2.0059 2.0059 0 0 0 2 -2v-10a2.0059 2.0059 0 0 0 -2 -2zm-6 9a2 2 0 1 1 2 -2 2.0059 2.0059 0 0 1 -2 2zm3.1-9h-6.2v-2a3.1 3.1 0 0 1 6.2 0v2z" transform="translate(-510.04 -49.931)" fill="#fff"/></svg><svg id="_login_h" viewBox="0 0 16 21" data-name="&#x421;&#x43B;&#x43E;&#x439; 1" width="32" height="32" y="576"><path id="_login_h-Shape" d="m524.04 56.931h-1v-2a5 5 0 1 0 -10 0v2h-1a2.0059 2.0059 0 0 0 -2 2v10a2.0059 2.0059 0 0 0 2 2h12a2.0059 2.0059 0 0 0 2 -2v-10a2.0059 2.0059 0 0 0 -2 -2zm-6 9a2 2 0 1 1 2 -2 2.0059 2.0059 0 0 1 -2 2zm3.1-9h-6.2v-2a3.1 3.1 0 0 1 6.2 0v2z" transform="translate(-510.04 -49.931)" fill="#283b4c"/></svg><svg id="exchange" viewBox="0 0 48.85161 48.85161" data-name="&#x421;&#x43B;&#x43E;&#x439; 1" width="32" height="32" y="608"><defs><style>.cls-1{fill:#010101;}</style></defs><title>17</title><path transform="translate(-325.54 -117.11)" class="cls-1" d="m349.96 117.11a24.426 24.426 0 1 0 24.426 24.426 24.454 24.454 0 0 0 -24.43 -24.43zm0 2.4261a22.039 22.039 0 0 1 21.005 15.452l-18.09 18.1a1.2138 1.2138 0 0 0 -0.00431 1.7112l1.2864 1.2993h-11.29v-11.31l1.7648 1.7574a1.2135 1.2135 0 0 0 1.7063 0.00616l7.6664-7.5241 2.968 2.9797a1.213 1.213 0 0 0 2.0727 -0.85592v-15.38a1.2127 1.2127 0 0 0 -1.2131 -1.2131h-15.39a1.213 1.213 0 0 0 -0.85592 2.0727l2.4766 2.4662-15.833 15.827a22.009 22.009 0 0 1 21.74 -25.39zm0 43.999a22.04 22.04 0 0 1 -21.11 -15.803l17.78-17.774a1.2131 1.2131 0 0 0 -0.00123 -1.718l-1.25-1.26h11.24l0.00185 11.228-1.7457-1.7531c-0.01663-0.016-0.03387-0.03017-0.05111-0.04618-0.01232-0.01047-0.024-0.02278-0.03756-0.03325-0.01786-0.01478-0.03879-0.02894-0.05788-0.0431-0.01293-0.00985-0.02525-0.02032-0.03879-0.02894-0.02032-0.01293-0.04126-0.02525-0.06219-0.03756l-0.04064-0.02463c-0.02094-0.0117-0.0431-0.02032-0.06466-0.03079l-0.04187-0.01909c-0.02217-0.00924-0.04433-0.01663-0.06774-0.02525-0.01355-0.00431-0.02833-0.01047-0.04249-0.01478-0.02217-0.00677-0.045-0.0117-0.06835-0.01724-0.01478-0.00369-0.02956-0.008-0.04433-0.01108-0.02217-0.00431-0.045-0.00677-0.06774-0.01047-0.0154-0.00246-0.0314-0.00554-0.04741-0.00677-0.02094-0.00185-0.04249-0.00246-0.064-0.00369-0.01724-0.00062-0.03448-0.00246-0.05172-0.00246-0.01909-0.00062-0.03879 0.00062-0.05727 0.00185-0.02032 0.00062-0.03941 0.00062-0.05911 0.00246-0.0154 0.00062-0.03079 0.00431-0.04557 0.00616-0.0234 0.00246-0.0468 0.00554-0.06958 0.00985l-0.01909 0.00431a1.214 1.214 0 0 0 -0.28079 0.0936c-0.01108 0.00493-0.02155 0.00862-0.032 0.01416-0.01663 0.00862-0.03387 0.01909-0.05049 0.02894-0.01724 0.01047-0.03633 0.02032-0.053 0.03079-0.01232 0.008-0.0234 0.01663-0.0351 0.02463-0.02155 0.01478-0.0431 0.03017-0.064 0.0468l-0.02217 0.01909c-0.0234 0.01971-0.04618 0.03879-0.069 0.061l-7.71 7.51-2.9606-2.9489a1.2131 1.2131 0 0 0 -2.069 0.85962v15.449a1.2136 1.2136 0 0 0 1.2137 1.2131h15.407a1.2134 1.2134 0 0 0 0.86208 -2.0665l-2.4816-2.5093 16.195-16.204a22.005 22.005 0 0 1 -21.67 25.79z"/></svg><svg id="exchange_h" viewBox="0 0 48.85161 48.85161" data-name="&#x421;&#x43B;&#x43E;&#x439; 1" width="32" height="32" y="640"><defs><style>.cls-1{fill:#010101;}</style></defs><title>17</title><path transform="translate(-325.54 -117.11)" class="cls-1" d="m349.96 117.11a24.426 24.426 0 1 0 24.426 24.426 24.454 24.454 0 0 0 -24.43 -24.43zm0 2.4261a22.039 22.039 0 0 1 21.005 15.452l-18.09 18.1a1.2138 1.2138 0 0 0 -0.00431 1.7112l1.2864 1.2993h-11.29v-11.31l1.7648 1.7574a1.2135 1.2135 0 0 0 1.7063 0.00616l7.6664-7.5241 2.968 2.9797a1.213 1.213 0 0 0 2.0727 -0.85592v-15.38a1.2127 1.2127 0 0 0 -1.2131 -1.2131h-15.39a1.213 1.213 0 0 0 -0.85592 2.0727l2.4766 2.4662-15.833 15.827a22.009 22.009 0 0 1 21.74 -25.39zm0 43.999a22.04 22.04 0 0 1 -21.11 -15.803l17.78-17.774a1.2131 1.2131 0 0 0 -0.00123 -1.718l-1.25-1.26h11.24l0.00185 11.228-1.7457-1.7531c-0.01663-0.016-0.03387-0.03017-0.05111-0.04618-0.01232-0.01047-0.024-0.02278-0.03756-0.03325-0.01786-0.01478-0.03879-0.02894-0.05788-0.0431-0.01293-0.00985-0.02525-0.02032-0.03879-0.02894-0.02032-0.01293-0.04126-0.02525-0.06219-0.03756l-0.04064-0.02463c-0.02094-0.0117-0.0431-0.02032-0.06466-0.03079l-0.04187-0.01909c-0.02217-0.00924-0.04433-0.01663-0.06774-0.02525-0.01355-0.00431-0.02833-0.01047-0.04249-0.01478-0.02217-0.00677-0.045-0.0117-0.06835-0.01724-0.01478-0.00369-0.02956-0.008-0.04433-0.01108-0.02217-0.00431-0.045-0.00677-0.06774-0.01047-0.0154-0.00246-0.0314-0.00554-0.04741-0.00677-0.02094-0.00185-0.04249-0.00246-0.064-0.00369-0.01724-0.00062-0.03448-0.00246-0.05172-0.00246-0.01909-0.00062-0.03879 0.00062-0.05727 0.00185-0.02032 0.00062-0.03941 0.00062-0.05911 0.00246-0.0154 0.00062-0.03079 0.00431-0.04557 0.00616-0.0234 0.00246-0.0468 0.00554-0.06958 0.00985l-0.01909 0.00431a1.214 1.214 0 0 0 -0.28079 0.0936c-0.01108 0.00493-0.02155 0.00862-0.032 0.01416-0.01663 0.00862-0.03387 0.01909-0.05049 0.02894-0.01724 0.01047-0.03633 0.02032-0.053 0.03079-0.01232 0.008-0.0234 0.01663-0.0351 0.02463-0.02155 0.01478-0.0431 0.03017-0.064 0.0468l-0.02217 0.01909c-0.0234 0.01971-0.04618 0.03879-0.069 0.061l-7.71 7.51-2.9606-2.9489a1.2131 1.2131 0 0 0 -2.069 0.85962v15.449a1.2136 1.2136 0 0 0 1.2137 1.2131h15.407a1.2134 1.2134 0 0 0 0.86208 -2.0665l-2.4816-2.5093 16.195-16.204a22.005 22.005 0 0 1 -21.67 25.79z"/></svg><svg id="plus" viewBox="0 0 48 48" data-name="&#x421;&#x43B;&#x43E;&#x439; 1" width="32" height="32" y="672"><defs><style>.cls-1{fill:#231f20;}</style></defs><title>116</title><path transform="translate(-256.14 -117)" class="cls-1" d="m280.14 117a24 24 0 1 0 24 24 24 24 0 0 0 -24 -24zm0.029 43.844a19.959 19.959 0 1 1 19.959 -19.959 19.959 19.959 0 0 1 -19.97 19.96z"/><path transform="translate(-256.14 -117)" class="cls-1" d="m288.7 138.9h-6.458l0.008-6.576a1.2859 1.2859 0 0 0 -1.331 -1.356l-1.579-0.002a1.3411 1.3411 0 0 0 -1.288 1.47l-0.008 6.463h-6.607a1.1846 1.1846 0 0 0 -1.328 1.21v1.809a1.1744 1.1744 0 0 0 1.328 1.178h6.602l-0.008 6.602a1.1859 1.1859 0 0 0 1.209 1.33l1.809 0.002a1.1758 1.1758 0 0 0 1.18 -1.326l0.008-6.607h6.581a1.2859 1.2859 0 0 0 1.354 -1.333v-1.578a1.3417 1.3417 0 0 0 -1.46 -1.27z"/></svg><svg id="plus_h" viewBox="0 0 48 48" data-name="&#x421;&#x43B;&#x43E;&#x439; 1" width="32" height="32" y="704"><defs><style>.cls-1{fill:#231f20;}</style></defs><title>116</title><path transform="translate(-256.14 -117)" class="cls-1" d="m280.14 117a24 24 0 1 0 24 24 24 24 0 0 0 -24 -24zm0.029 43.844a19.959 19.959 0 1 1 19.959 -19.959 19.959 19.959 0 0 1 -19.97 19.96z"/><path transform="translate(-256.14 -117)" class="cls-1" d="m288.7 138.9h-6.458l0.008-6.576a1.2859 1.2859 0 0 0 -1.331 -1.356l-1.579-0.002a1.3411 1.3411 0 0 0 -1.288 1.47l-0.008 6.463h-6.607a1.1846 1.1846 0 0 0 -1.328 1.21v1.809a1.1744 1.1744 0 0 0 1.328 1.178h6.602l-0.008 6.602a1.1859 1.1859 0 0 0 1.209 1.33l1.809 0.002a1.1758 1.1758 0 0 0 1.18 -1.326l0.008-6.607h6.581a1.2859 1.2859 0 0 0 1.354 -1.333v-1.578a1.3417 1.3417 0 0 0 -1.46 -1.27z"/></svg>


<svg id="Слой_1" data-name="Слой 1" xmlns="http://www.w3.org/2000/svg" viewBox="0 0 21.92347 21.92241" width="15" height="15" y="736"><path fill="#ffffff" d="M638.085,47.3426l-5.61252-5.61252a8.544,8.544,0,0,0,1.287-4.48044,8.72892,8.72892,0,1,0-4.17067,7.367l5.61252,5.6097a1.02931,1.02931,0,0,0,1.44185,0l1.44185-1.44185A1.02669,1.02669,0,0,0,638.085,47.3426ZM625.10829,43.017a5.76741,5.76741,0,1,1,5.76741-5.76741A5.76769,5.76769,0,0,1,625.10829,43.017Z" transform="translate(-616.45718 -28.59852)"/></svg>

</svg>
