<svg id="Слой_1" data-name="Слой 1" xmlns="http://www.w3.org/2000/svg" viewBox="0 0 21.82402 17.90366"><path class="cls-1" d="M84.13,121.78269l1.27118,3.91162,0.22453,0.69092,0.72647,0,4.11254,0.00017-3.327,2.41769-0.58768.42706,0.2245,0.69092,1.2711,3.912-3.32792-2.41757-0.58777-.427-0.58774.427-3.32748,2.4175,1.27084-3.912,0.22446-.69092-0.58771-.427L77.795,126.38543l4.11281-.00017,0.72647,0,0.22453-.6909L84.13,121.78269m0-3.23555-2.22223,6.83812-7.19007.00029,5.81683,4.22653-2.22165,6.83871L84.13,132.22454l5.81769,4.22626-2.22208-6.83871,5.81611-4.22653-7.1895-.00029L84.13,118.54714h0Z" transform="translate(-74.71766 -118.54714)" fill="#e0e0e0"/></svg>