<svg width="462" height="177" viewBox="0 0 462 177" xmlns="http://www.w3.org/2000/svg"><title>BAI_logo_RGB(1)</title><g fill="none" fill-rule="evenodd"><path d="M373.795 121.829h16.81v-79.31h-16.81v79.31zm-37.857-32.991c-5.312-17.105-8.311-26.787-8.976-29.026-.669-2.244-1.151-4.02-1.429-5.317-1.202 4.629-4.625 16.072-10.255 34.343h20.66zm9.777 32.991l-5.758-18.885H311.04l-5.74 18.885h-18.125l27.994-79.642h20.546l28.103 79.642h-18.103zM241.562 87.281v20.661h10.961c4.647 0 8.052-.888 10.255-2.663 2.221-1.761 3.313-4.483 3.313-8.129 0-6.573-4.702-9.869-14.105-9.869h-10.424zm0-13.327h9.773c4.556 0 7.851-.706 9.904-2.112 2.039-1.425 3.054-3.755 3.054-7.014 0-3.055-1.11-5.221-3.331-6.555-2.222-1.315-5.74-1.98-10.551-1.98h-8.849v17.661zm-16.81-31.435h24.675c11.257 0 19.423 1.594 24.494 4.793 5.093 3.205 7.628 8.294 7.628 15.294 0 4.739-1.11 8.626-3.332 11.662-2.221 3.036-5.184 4.87-8.867 5.48v.537c5.017 1.129 8.644 3.223 10.866 6.295 2.239 3.073 3.35 7.165 3.35 12.254 0 7.237-2.627 12.868-7.848 16.919-5.22 4.055-12.312 6.076-21.288 6.076h-29.678v-79.31z" fill="#FFF"/><path fill="#FFD221" d="M101.923 12.68L89.293.046 76.655 12.68l12.636 12.63z"/><path d="M164.91 75.668l-12.635-12.636-12.631-12.63-12.636-12.636-12.631-12.632-12.635 12.632L89.11 50.401 76.657 37.948l-.182-.182L64.02 25.312 51.39 37.948 38.754 50.583 26.123 63.214 13.488 75.85.856 88.481l12.454 12.454.178.182 12.453 12.454 12.636 12.631 12.63-12.63 12.637-12.637 12.63-12.63L89.11 75.667l12.632-12.636 12.635-12.63 12.63 12.63 12.637 12.636 12.63 12.636-12.63 12.631-12.636-12.63-12.631-12.637-12.635 12.636-12.632 12.631-12.635 12.636-12.631 12.631-12.636 12.635 12.636 12.631 12.63 12.636 12.636 12.631 12.632-12.63 12.635-12.637 12.63-12.63-12.63-12.636-12.635-12.63 12.635-12.637 12.63 12.636 12.637 12.631 12.63-12.63 12.637-12.637 12.636-12.63-12.636-12.637zm-101.066 0L51.208 88.304l-12.631 12.631-12.454-12.454 12.63-12.63L51.39 63.213l12.63-12.63 12.455 12.448-12.631 12.636zm37.898 63.17l-12.632 12.63-12.635-12.63 12.635-12.636 12.632 12.635z" fill="#62C200"/><path fill="#FFD221" d="M434.988 57.824l-26.66 26.66 26.66 26.66 26.664-26.66z"/><path d="M446.909 91.557h-10.715v-1.98l6.905-9.909h-6.723v-2.522h10.346v1.976l-6.891 9.913h7.078v2.522zm-12.25 0h-3.467l-3.774-6.072-1.292.924v5.148h-3.055v-14.41h3.055v6.595l1.206-1.698 3.896-4.898h3.39l-5.02 6.377 5.062 8.034z" fill="#283B4C"/></g></svg>